<?xml version="1.0" encoding="UTF-8"?>
<svg version="1.1" xmlns="http://www.w3.org/2000/svg" width="500" height="500">
<path d="M0 0 C165 0 330 0 500 0 C500 165 500 330 500 500 C335 500 170 500 0 500 C0 335 0 170 0 0 Z " fill="#2A2FCC" transform="translate(0,0)"/>
<path d="M0 0 C4.06255981 1.76186324 7.82047873 3.92912722 11.625 6.1875 C12.72384521 6.82171875 13.82269043 7.4559375 14.95483398 8.109375 C18.31417991 10.05483201 21.65839558 12.02425575 25 14 C26.89433222 15.11101651 28.78885202 16.22171327 30.68359375 17.33203125 C34.28651269 19.45003799 37.88181844 21.58033148 41.47265625 23.71875 C47.2938354 27.18252332 53.14517531 30.59349673 59 34 C66.64313475 38.44904379 74.26827381 42.92651037 81.875 47.4375 C89.77851857 52.12257177 97.72248285 56.73285375 105.6875 61.3125 C108.97316375 63.20710403 112.25775848 65.10353789 115.54150391 67.00146484 C117.93345556 68.38368398 120.32635175 69.76416957 122.72021484 71.14306641 C125.84359949 72.9438265 128.96024009 74.75582399 132.07290649 76.57504272 C133.26207573 77.26789073 134.45326707 77.95728118 135.64657593 78.64297485 C137.30887755 79.59895504 138.96320611 80.56875825 140.6171875 81.5390625 C141.56190918 82.08771973 142.50663086 82.63637695 143.47998047 83.20166016 C146.28170928 85.20103377 148.08553924 87.14409652 150 90 C150.88759508 98.66763763 149.02788655 107.58492377 147.875 116.1875 C147.64771915 117.91651234 147.42100814 119.64559968 147.19482422 121.37475586 C146.71424022 125.04222891 146.23044227 128.70925735 145.74414062 132.37597656 C144.89244623 138.80262551 144.05493855 145.23109304 143.21910095 151.65982056 C142.60899787 156.35127896 141.99673149 161.04242973 141.37915039 165.73291016 C140.09821315 175.47572013 138.84191641 185.22077568 137.63574219 194.97315979 C137.01893711 199.9532934 136.39359838 204.93234082 135.76776123 209.91134644 C135.46591173 212.33215195 135.16821631 214.7534793 134.87481689 217.17532349 C134.46478065 220.55708236 134.04052138 223.93678414 133.61328125 227.31640625 C133.49470261 228.3257019 133.37612396 229.33499756 133.25395203 230.37487793 C132.37920135 237.13949006 130.97872016 241.67554602 125.5625 246.125 C121.9589824 249.16443105 118.46190408 252.30114206 115 255.5 C111.09087908 259.10087265 107.14131699 262.64419194 103.125 266.125 C100.38176506 268.54550142 97.69118757 271.02204178 95 273.5 C91.04140277 277.1441694 87.04823168 280.73913779 82.984375 284.265625 C78.94625309 287.79500714 74.98085319 291.40634226 71 295 C69.33359149 296.50028679 67.66692647 298.00028872 66 299.5 C65.175 300.2425 64.35 300.985 63.5 301.75 C56 308.5 56 308.5 53.51953125 310.7265625 C51.78002825 312.29616055 50.04873394 313.87488703 48.32421875 315.4609375 C47.45410156 316.25757813 46.58398438 317.05421875 45.6875 317.875 C44.51767578 318.95394531 44.51767578 318.95394531 43.32421875 320.0546875 C40.99922594 322.00064787 38.63831107 323.51507448 36 325 C35.85304688 324.38253906 35.70609375 323.76507813 35.5546875 323.12890625 C33.66705974 316.00148419 30.91007621 308.90642028 24.80859375 304.37109375 C23.91333984 303.69240234 23.91333984 303.69240234 23 303 C23 301 23 301 24.36328125 299.625 C25.00652344 299.08875 25.64976562 298.5525 26.3125 298 C29.77017549 295.06250578 33.15244741 292.06275384 36.5 289 C40.28662998 285.54671847 44.1047632 282.13900949 47.97265625 278.77734375 C50.33489173 276.70640513 52.66795853 274.60487152 55 272.5 C58.61676345 269.23609152 62.26389608 266.01209051 65.9375 262.8125 C68.30964429 260.72788836 70.65556065 258.61571356 73 256.5 C73.8353125 255.74847656 74.670625 254.99695313 75.53125 254.22265625 C77.1385348 252.7755913 78.74286268 251.32523307 80.34375 249.87109375 C81.0553125 249.23300781 81.766875 248.59492188 82.5 247.9375 C83.44359375 247.08478516 83.44359375 247.08478516 84.40625 246.21484375 C86 245 86 245 88 245 C88 244.01 88 243.02 88 242 C87.28569824 241.72776611 86.57139648 241.45553223 85.83544922 241.17504883 C82.99347822 239.99729729 80.34124039 238.65674239 77.6328125 237.19921875 C76.07288574 236.36040161 76.07288574 236.36040161 74.48144531 235.50463867 C73.37381836 234.90498291 72.26619141 234.30532715 71.125 233.6875 C69.9812793 233.07173096 68.83755859 232.45596191 67.65917969 231.8215332 C61.85916529 228.69014565 56.09720639 225.50474131 50.3828125 222.21875 C49.34882324 221.62489502 48.31483398 221.03104004 47.24951172 220.41918945 C45.29048303 219.2881956 43.3361336 218.14904674 41.38720703 217.00073242 C35.09983453 213.31043229 35.09983453 213.31043229 28 212 C27.01 212.33 26.02 212.66 25 213 C25 218.94 25 224.88 25 231 C10.81 231 -3.38 231 -18 231 C-18 226.05 -18 221.1 -18 216 C-20.97 215.01 -20.97 215.01 -24 214 C-24.77730469 213.53851563 -25.55460937 213.07703125 -26.35546875 212.6015625 C-30.72422906 211.60778246 -33.65328399 214.11210681 -37.3125 216.375 C-38.05306641 216.81328125 -38.79363281 217.2515625 -39.55664062 217.703125 C-41.38081919 218.78586325 -43.19176687 219.89083702 -45 221 C-47.79278452 218.51583651 -49.3864611 215.78245277 -51.1796875 212.51953125 C-51.77910156 211.43736328 -52.37851563 210.35519531 -52.99609375 209.24023438 C-53.61613281 208.10908203 -54.23617187 206.97792969 -54.875 205.8125 C-56.09965169 203.58879035 -57.32617627 201.36611099 -58.5546875 199.14453125 C-59.13831055 198.08830566 -59.72193359 197.03208008 -60.32324219 195.94384766 C-61.79123544 193.36652346 -63.3306885 190.8735128 -64.9453125 188.38671875 C-67 185 -67 185 -67 182 C-61.72 179.03 -56.44 176.06 -51 173 C-51 170.69 -51 168.38 -51 166 C-56.28 163.03 -61.56 160.06 -67 157 C-65.46068602 152.38205806 -63.92519077 148.70023155 -61.6640625 144.46484375 C-61.34343842 143.86370255 -61.02281433 143.26256134 -60.69247437 142.64320374 C-60.0173661 141.38059691 -59.33988933 140.11925391 -58.66015625 138.85913086 C-57.628038 136.94313964 -56.60655785 135.02174496 -55.5859375 133.09960938 C-54.92511224 131.86684793 -54.26367417 130.63441475 -53.6015625 129.40234375 C-53.00682129 128.29366943 -52.41208008 127.18499512 -51.79931641 126.04272461 C-50.07365089 123.12454695 -48.18562084 120.58576683 -46 118 C-44.97519531 118.58910156 -43.95039063 119.17820312 -42.89453125 119.78515625 C-41.53427452 120.5450238 -40.17357383 121.304097 -38.8125 122.0625 C-37.80219727 122.64741211 -37.80219727 122.64741211 -36.77148438 123.24414062 C-32.75739905 125.48052591 -32.75739905 125.48052591 -28.26171875 125.87109375 C-25.66574856 124.91276052 -25.66574856 124.91276052 -22 123 C-21.67 115.74 -21.34 108.48 -21 101 C-6.81 101 7.38 101 22 101 C22.33 108.26 22.66 115.52 23 123 C28.31666667 126.40833333 28.31666667 126.40833333 31.75 125.5 C33.67406193 124.61197142 35.58499221 123.69264695 37.4609375 122.70703125 C38.34007812 122.24683594 39.21921875 121.78664063 40.125 121.3125 C40.95257813 120.85488281 41.78015625 120.39726562 42.6328125 119.92578125 C45 119 45 119 46.90917969 119.01879883 C50.23257574 120.57843553 51.28070487 123.61133616 52.8203125 126.7734375 C53.16504608 127.45298492 53.50977966 128.13253235 53.86495972 128.83267212 C54.9647678 131.00712613 56.0452558 133.1905242 57.125 135.375 C58.21591976 137.55010842 59.31066038 139.72325293 60.40646362 141.89590454 C61.08690789 143.24849765 61.76374604 144.60291231 62.43655396 145.95932007 C63.83401983 148.76629775 65.25739994 151.38609991 67 154 C67.02734375 155.953125 67.02734375 155.953125 66 158 C63.84823392 159.44036586 61.86019848 160.60483691 59.5625 161.75 C58.96373047 162.06582031 58.36496094 162.38164062 57.74804688 162.70703125 C53.31596659 165 53.31596659 165 51 165 C50.84503147 167.94440205 50.81141956 169.36975232 52 172 C55.23199019 174.614228 58.90183966 176.30828582 62.625 178.125 C64.8202091 179.25157358 67.01418887 180.38054532 69.20703125 181.51171875 C70.33318848 182.0845459 71.4593457 182.65737305 72.61962891 183.24755859 C77.93205375 186.00160926 83.12025905 188.96471122 88.3125 191.9375 C95.50076489 196.03617255 102.72325877 200.06021814 110 204 C110.08918701 203.08118042 110.08918701 203.08118042 110.18017578 202.14379883 C111.81361706 185.59129307 113.8503933 169.10932264 116.0625 152.625 C116.19215149 151.65809235 116.32180298 150.69118469 116.4553833 149.69497681 C117.79122616 139.7537055 119.14557725 129.8165369 120.61694336 119.89428711 C121.71568778 112.90521133 121.71568778 112.90521133 121 106 C116.00390106 100.82546896 109.46275661 97.63575891 103.25 94.125 C101.49993101 93.12594487 99.74986705 92.12688079 98.00012207 91.1272583 C96.19183576 90.09511879 94.38215381 89.06546032 92.57226562 88.03613281 C87.03343764 84.88302515 81.51803655 81.68930075 76 78.5 C73.83344189 77.24981186 71.66677489 75.9998124 69.5 74.75 C65.16666667 72.25 60.83333333 69.75 56.5 67.25 C55.42621094 66.6305249 54.35242188 66.0110498 53.24609375 65.37280273 C51.0923828 64.13023981 48.93873633 62.88756511 46.78515625 61.64477539 C41.76315738 58.74685377 36.74057193 55.84996651 31.71557617 52.95724487 C29.94954478 51.94052802 28.18372569 50.92344342 26.41796875 49.90625 C24.21265845 48.63599127 22.00695784 47.36640982 19.80078125 46.09765625 C18.79402344 45.51757812 17.78726563 44.9375 16.75 44.33984375 C15.77933594 43.78538574 14.80867187 43.23092773 13.80859375 42.65966797 C11.95875776 41.56655383 10.13642148 40.42528786 8.34765625 39.23486328 C3.64750105 36.14156006 -0.06322939 34.02910724 -5.80224609 34.46679688 C-10.02092062 35.49030111 -13.29034377 37.79171866 -16.8125 40.25 C-18.48936445 41.36427146 -20.16780014 42.47618135 -21.84765625 43.5859375 C-22.70117676 44.15666992 -23.55469727 44.72740234 -24.43408203 45.31542969 C-28.46471481 47.96161106 -32.60215937 50.41821481 -36.75 52.875 C-38.4261776 53.87433551 -40.1019522 54.87434723 -41.77734375 55.875 C-43.05327393 56.63683594 -43.05327393 56.63683594 -44.35498047 57.4140625 C-49.02116209 60.2118764 -53.66676609 63.04340436 -58.3125 65.875 C-59.74166748 66.74608398 -59.74166748 66.74608398 -61.19970703 67.63476562 C-63.14412802 68.82017301 -65.08846333 70.00572092 -67.03271484 71.19140625 C-71.06729464 73.65052811 -75.10451068 76.10530624 -79.14160156 78.56030273 C-83.76256743 81.37107518 -88.38161333 84.18499216 -93 87 C-93.67272949 87.40976074 -94.34545898 87.81952148 -95.03857422 88.24169922 C-101.30982987 92.06497218 -107.54627873 95.94317463 -113.75 99.875 C-114.35980713 100.25696533 -114.96961426 100.63893066 -115.59790039 101.0324707 C-118.83681049 102.99500014 -118.83681049 102.99500014 -121 106 C-121.68959428 117.0655827 -120.31820744 127.87724291 -118.54931641 138.77709961 C-117.19837931 147.19058882 -116.23893724 155.60966873 -115.36782837 164.0826416 C-113.67957842 180.45465602 -111.66304424 196.75612574 -109.38525391 213.05664062 C-109.03553802 215.7284877 -108.76218664 218.39555388 -108.51171875 221.078125 C-107.88222916 225.90261013 -107.13756749 228.02120343 -103.453125 231.19140625 C-102.39609375 231.97386719 -101.3390625 232.75632812 -100.25 233.5625 C-99.06058466 234.45360911 -97.87180295 235.34556449 -96.68359375 236.23828125 C-96.07112793 236.69541504 -95.45866211 237.15254883 -94.82763672 237.62353516 C-91.95398359 239.78779595 -89.13405821 242.01851548 -86.3125 244.25 C-80.89209208 248.52213326 -75.45050089 252.76633909 -70 257 C-62.87662651 262.53439981 -55.77303237 268.09308215 -48.68554688 273.67333984 C-46.37709535 275.49027576 -44.06701997 277.30514075 -41.75683594 279.11987305 C-40.59328945 280.03392645 -39.42987617 280.94814945 -38.26660156 281.86254883 C-35.25280504 284.23144039 -32.23717754 286.59794879 -29.21875 288.9609375 C-28.59613281 289.44884766 -27.97351563 289.93675781 -27.33203125 290.43945312 C-26.15292849 291.36337693 -24.97328392 292.28660993 -23.79296875 293.20898438 C-22.18981062 294.46587566 -20.59408057 295.73162354 -19 297 C-18.13955078 297.67337402 -18.13955078 297.67337402 -17.26171875 298.36035156 C-15.80320194 299.52767737 -14.39649204 300.7591411 -13 302 C-13 302.66 -13 303.32 -13 304 C-14.66666667 305.66666667 -16.33333333 307.33333333 -18 309 C-21.61780745 313.68186846 -23.35608807 318.3957548 -25 324 C-29.46893784 322.55416717 -32.54620086 320.06969241 -36 317 C-40.85511542 312.78675198 -45.79762706 308.78996514 -50.92089844 304.90551758 C-55.27391844 301.59037638 -59.5190455 298.15663545 -63.75 294.6875 C-69.2304088 290.19831315 -74.78773621 285.83636409 -80.4375 281.5625 C-87.03530183 276.5670539 -93.45502161 271.39092212 -99.8203125 266.10327148 C-104.30975335 262.37789091 -108.84138198 258.71792688 -113.4375 255.125 C-114.00597656 254.68003174 -114.57445312 254.23506348 -115.16015625 253.77661133 C-117.76444097 251.74067973 -120.3730261 249.71046534 -122.984375 247.68359375 C-123.87640625 246.98363281 -124.7684375 246.28367187 -125.6875 245.5625 C-126.83798828 244.66724609 -126.83798828 244.66724609 -128.01171875 243.75390625 C-132.07663128 240.16815826 -133.37430714 237.49884212 -133.87890625 232.08203125 C-133.99419678 230.91953857 -134.1094873 229.7570459 -134.22827148 228.55932617 C-134.33856689 227.32287354 -134.4488623 226.0864209 -134.5625 224.8125 C-134.81458553 222.24213658 -135.0671869 219.6718237 -135.3203125 217.1015625 C-135.43793945 215.86438477 -135.55556641 214.62720703 -135.67675781 213.35253906 C-136.55494197 204.24436323 -137.710535 195.16880716 -138.90625 186.09765625 C-139.25038219 183.48182023 -139.59424354 180.86595086 -139.9375 178.25 C-140.02473328 177.58618317 -140.11196655 176.92236633 -140.20184326 176.23843384 C-141.63885046 165.26023608 -142.83064493 154.26977518 -143.92114258 143.2512207 C-144.7438681 135.08317462 -145.79995249 126.9764308 -147.00927734 118.85766602 C-147.93851555 112.58185954 -148.66333766 106.33887097 -149 100 C-149.07605469 99.09894531 -149.15210938 98.19789063 -149.23046875 97.26953125 C-149.27816406 96.39683594 -149.32585937 95.52414063 -149.375 94.625 C-149.44847656 93.49964844 -149.44847656 93.49964844 -149.5234375 92.3515625 C-148.43675945 87.46962082 -145.30600389 84.90163852 -141.35058594 82.17089844 C-138.59979795 80.45327026 -135.82955459 78.77849132 -133.03045654 77.14083862 C-130.5044158 75.66281826 -127.99306794 74.16058616 -125.48046875 72.65986633 C-124.19117299 71.89013646 -122.90112947 71.12165774 -121.61035156 70.35441589 C-115.64258756 66.80403824 -109.75148206 63.13686654 -103.875 59.4375 C-94.4482555 53.519241 -84.98321314 47.66610062 -75.49951172 41.83959961 C-67.98769011 37.22442369 -60.48699344 32.59179019 -52.99389648 27.94628906 C-48.10310912 24.91595927 -43.20676388 21.89484444 -38.3046875 18.8828125 C-37.44191193 18.35255463 -37.44191193 18.35255463 -36.56170654 17.81158447 C-33.7560488 16.08740598 -30.94979209 14.36422294 -28.14257812 12.64257812 C-27.11326172 12.01029297 -26.08394531 11.37800781 -25.0234375 10.7265625 C-24.01764648 10.11329102 -23.01185547 9.50001953 -21.97558594 8.86816406 C-19.97606584 7.61280405 -18.00485046 6.31130489 -16.06347656 4.96777344 C-6.15443291 -1.82358832 -6.15443291 -1.82358832 0 0 Z " fill="#FDFDFE" transform="translate(249,72)"/>
<path d="M0 0 C8.90110611 -0.5882915 15.8969021 2.74520144 22.80078125 8.21875 C29.33774315 14.35548974 32.79603316 20.89803037 33.64453125 29.828125 C33.90376242 38.96943485 31.9650169 46.68797816 25.96875 53.7578125 C24.80235067 54.96604472 23.61701408 56.15654154 22.40625 57.3203125 C21.643125 58.0628125 20.88 58.8053125 20.09375 59.5703125 C11.93805218 64.88099945 4.09085339 66.50047146 -5.59375 65.3203125 C-14.08952437 63.11818694 -21.91887718 56.66654122 -26.59375 49.3203125 C-31.02540315 39.99537566 -32.18943433 31.54486287 -29.03125 21.6328125 C-25.67610139 13.36855172 -19.34218972 6.72316423 -11.59375 2.3203125 C-7.78715868 0.86217071 -4.01942291 0.49637452 0 0 Z " fill="#2B30CC" transform="translate(247.59375,207.6796875)"/>
<path d="M0 0 C4.67726775 3.21339006 8.00689994 7.80808638 9.046875 13.40625 C9.77403496 20.43546299 8.28592478 25.67780436 4.046875 31.40625 C-0.61003262 35.6276195 -5.28581442 37.75159175 -11.578125 38.03125 C-18.04089689 37.63818184 -22.75104573 35.66784492 -27.265625 31.03125 C-31.16146815 24.97104955 -32.87004997 20.60348296 -31.953125 13.40625 C-29.79937609 6.60493765 -25.82844621 2.3231308 -19.953125 -1.59375 C-13.16903668 -3.85511277 -6.37290889 -3.16385548 0 0 Z " fill="#FB8F03" transform="translate(265.953125,381.59375)"/>
<path d="M0 0 C0.33 0 0.66 0 1 0 C1 13.2 1 26.4 1 40 C-12.2 40 -25.4 40 -39 40 C-35.77794772 38.38897386 -32.66489916 37.09649079 -29.3125 35.8125 C-17.05026283 30.68709346 -8.27521531 21.8875767 -3.0625 9.625 C-1.82512189 6.44556743 -0.74944353 3.32910707 0 0 Z " fill="#000000" transform="translate(499,460)"/>
<path d="M0 0 C1.61102614 3.22205228 2.90350921 6.33510084 4.1875 9.6875 C9.30463836 21.92995603 18.08393466 30.75497035 30.375 35.875 C31.35210938 36.24367188 32.32921875 36.61234375 33.3359375 36.9921875 C36 38 36 38 40 40 C26.8 40 13.6 40 0 40 C0 26.8 0 13.6 0 0 Z " fill="#000000" transform="translate(0,460)"/>
<path d="M0 0 C13.2 0 26.4 0 40 0 C40 13.2 40 26.4 40 40 C38.38897386 36.77794772 37.09649079 33.66489916 35.8125 30.3125 C30.69536164 18.07004397 21.91606534 9.24502965 9.625 4.125 C8.64789063 3.75632813 7.67078125 3.38765625 6.6640625 3.0078125 C4 2 4 2 0 0 Z " fill="#000000" transform="translate(460,0)"/>
<path d="M0 0 C13.2 0 26.4 0 40 0 C36.77794772 1.61102614 33.66489916 2.90350921 30.3125 4.1875 C18.07004397 9.30463836 9.24502965 18.08393466 4.125 30.375 C3.75632813 31.35210938 3.38765625 32.32921875 3.0078125 33.3359375 C2 36 2 36 0 40 C0 26.8 0 13.6 0 0 Z " fill="#000000" transform="translate(0,0)"/>
</svg>